<svg viewBox="0 0 512 512" xmlns="http://www.w3.org/2000/svg" fill-rule="evenodd" clip-rule="evenodd" stroke-linejoin="round" stroke-miterlimit="2"><g transform="translate(6 6) scale(5.85938)"><clipPath id="prefix__a"><path d="M0 0h85.333v85.333H0z"/></clipPath><g clip-path="url(#prefix__a)"><path d="M64 59.878V25.75a4.132 4.132 0 00-2.52-3.8L24.057 6.153a4.115 4.115 0 00-1.638-.325l-18.329.15C1.84 5.997-.001 7.853 0 10.103v17.665c0 .806.236 1.593.678 2.267l21.109 32.109a4.13 4.13 0 003.447 1.859h34.641c2.263 0 4.125-1.862 4.125-4.125z" fill="url(#prefix___Linear2)" fill-rule="nonzero" transform="scale(1.33333)"/><path d="M58 14.988V4.125C58 1.862 56.138 0 53.875 0H41.309c-.2 0-.4.014-.598.044L3.527 5.492A4.139 4.139 0 000 9.573v15.398c0 2.263 1.862 4.125 4.125 4.125h.001l18.505-.005a4.13 4.13 0 001.253-.195l31.246-9.98A4.136 4.136 0 0058 14.988z" fill="url(#prefix___Linear3)" fill-rule="nonzero" transform="scale(1.33333)"/><path d="M77.333 21.937V5.592c0-3.017-2.483-5.5-5.5-5.5l-.087.001L57.337.011c-1.573.025-3.38 1.041-4.405 2.237L9.324 53.125A5.514 5.514 0 008 56.704v15.133c0 3.017 2.483 5.5 5.5 5.5h14.67a5.499 5.499 0 004.14-1.879L75.972 25.56a5.502 5.502 0 001.36-3.623z" fill="#ff2d90" fill-rule="nonzero"/><path fill-rule="nonzero" d="M16 16h53.333v53.333H16z"/><path d="M44 58.667H22.667v4H44v-4zM27.663 41.656a9.722 9.722 0 01-3.66-3.715c-.886-1.577-1.328-3.337-1.328-5.281 0-1.944.442-3.704 1.329-5.28a9.735 9.735 0 013.659-3.716c1.552-.9 3.286-1.352 5.2-1.352 1.62 0 3.108.3 4.46.9a9.158 9.158 0 013.38 2.523 8.586 8.586 0 011.808 3.724h-4.087a5.362 5.362 0 00-3.101-3.175 6.525 6.525 0 00-2.43-.443c-1.182 0-2.25.296-3.202.887a6.148 6.148 0 00-2.236 2.436c-.54 1.035-.808 2.199-.808 3.493 0 1.298.269 2.462.808 3.495a6.133 6.133 0 002.236 2.437c.953.59 2.02.886 3.202.886.83.009 1.655-.142 2.43-.443a5.366 5.366 0 003.1-3.173h4.088a8.589 8.589 0 01-1.807 3.722 9.158 9.158 0 01-3.38 2.523c-1.353.6-2.84.9-4.46.9-1.915 0-3.648-.45-5.201-1.35v.003-.001zm22.11-19v16.493h9.49v3.515H45.885V22.656h3.888z" fill="#fff" fill-rule="nonzero"/></g></g><defs><linearGradient id="prefix___Linear2" x1="0" y1="0" x2="1" y2="0" gradientUnits="userSpaceOnUse" gradientTransform="rotate(45 -3.19 7.073) scale(82.868)"><stop offset="0" stop-color="#009ae5"/><stop offset=".29" stop-color="#009ae5"/><stop offset=".7" stop-color="#00d980"/><stop offset="1" stop-color="#00d980"/></linearGradient><linearGradient id="prefix___Linear3" x1="0" y1="0" x2="1" y2="0" gradientUnits="userSpaceOnUse" gradientTransform="rotate(155.126 28.208 6.016) scale(58.921)"><stop offset="0" stop-color="#ff2d90"/><stop offset=".3" stop-color="#ff2d90"/><stop offset=".54" stop-color="#009ae5"/><stop offset="1" stop-color="#009ae5"/></linearGradient></defs></svg>