<svg viewBox="0 0 512 512" xmlns="http://www.w3.org/2000/svg" fill-rule="evenodd" clip-rule="evenodd" stroke-linejoin="round" stroke-miterlimit="2"><g transform="translate(6 6) scale(5.85938)"><clipPath id="prefix__a"><path d="M0 0h85.333v85.333H0z"/></clipPath><g clip-path="url(#prefix__a)"><path d="M63.4 77.333h16.345c3.017 0 5.5-2.483 5.5-5.5l-.001-.087-.235-14.725a5.505 5.505 0 00-1.92-4.088L32.212 9.324A5.5 5.5 0 0028.632 8H13.5C10.483 8 8 10.483 8 13.5v14.67c0 1.587.685 3.095 1.879 4.14l49.9 43.663a5.498 5.498 0 003.62 1.36z" fill="#00d886" fill-rule="nonzero"/><path d="M49.013 58h10.862C62.138 58 64 56.138 64 53.875V41.309c0-.2-.014-.4-.044-.598L58.508 3.527A4.138 4.138 0 0054.427 0H39.029c-2.263 0-4.125 1.862-4.125 4.125v.001l.005 18.505c0 .425.066.848.195 1.253l9.979 31.246a4.135 4.135 0 003.93 2.87z" fill="url(#prefix___Linear2)" fill-rule="nonzero" transform="scale(1.33333)"/><path d="M4.125 64h34.127a4.132 4.132 0 003.8-2.52L57.85 24.057c.219-.518.33-1.076.324-1.638l-.15-18.329C58.005 1.841 56.15 0 53.9 0H36.234a4.13 4.13 0 00-2.266.678L1.86 21.787A4.128 4.128 0 000 25.234v34.641C0 62.138 1.862 64 4.125 64z" fill="url(#prefix___Linear3)" fill-rule="nonzero" transform="scale(1.33333)"/><path fill-rule="nonzero" d="M16 16h53.333v53.333H16z"/><path d="M26.33 41.656a9.71 9.71 0 01-3.657-3.715c-.886-1.577-1.33-3.337-1.33-5.281 0-1.944.444-3.704 1.33-5.28a9.742 9.742 0 013.658-3.716c1.553-.9 3.286-1.352 5.202-1.352 1.554 0 2.984.277 4.296.83a9.214 9.214 0 013.315 2.329 8.491 8.491 0 011.893 3.458h-4.173a5.2 5.2 0 00-1.235-1.637 5.573 5.573 0 00-1.822-1.07 6.542 6.542 0 00-2.244-.38c-1.183 0-2.25.295-3.203.886a6.151 6.151 0 00-2.236 2.437c-.539 1.034-.808 2.199-.808 3.494 0 1.294.27 2.46.808 3.494a6.133 6.133 0 002.236 2.438c.953.59 2.02.885 3.203.885 1.094 0 2.088-.205 2.98-.615.89-.41 1.597-.977 2.12-1.701a4.39 4.39 0 00.845-2.444l.013.413H32.82v-3.072h8.476v1.574c0 1.76-.427 3.356-1.28 4.78a9.19 9.19 0 01-3.501 3.366c-1.482.819-3.142 1.228-4.982 1.228-1.84 0-3.65-.45-5.202-1.35v.002-.001zm22.031 0a9.76 9.76 0 01-3.673-3.715c-.89-1.577-1.336-3.337-1.336-5.281 0-1.944.444-3.704 1.336-5.28a9.754 9.754 0 013.673-3.716c1.558-.9 3.299-1.352 5.224-1.352 1.924 0 3.65.45 5.21 1.35a9.706 9.706 0 013.665 3.717c.885 1.577 1.33 3.337 1.33 5.28 0 1.945-.445 3.705-1.33 5.28a9.704 9.704 0 01-3.667 3.718c-1.557.9-3.293 1.35-5.208 1.35-1.916 0-3.666-.45-5.224-1.35v-.001zm8.41-2.972c.945-.595 1.684-1.42 2.217-2.472.533-1.053.8-2.237.8-3.552s-.267-2.499-.8-3.552a6.128 6.128 0 00-2.216-2.472c-.943-.595-2.005-.893-3.187-.893-1.18 0-2.246.297-3.193.893a6.162 6.162 0 00-2.23 2.472c-.538 1.053-.807 2.237-.807 3.552s.269 2.499.808 3.552c.538 1.053 1.28 1.877 2.229 2.472.947.596 2.013.893 3.193.893 1.183 0 2.244-.297 3.187-.893zM44 58.667H22.667v4H44v-4z" fill="#fff" fill-rule="nonzero"/></g></g><defs><linearGradient id="prefix___Linear2" x1="0" y1="0" x2="1" y2="0" gradientUnits="userSpaceOnUse" gradientTransform="rotate(-114.874 50.182 7.604) scale(58.921)"><stop offset="0" stop-color="#00d886"/><stop offset=".24" stop-color="#00d886"/><stop offset=".51" stop-color="#007dfe"/><stop offset="1" stop-color="#007dfe"/></linearGradient><linearGradient id="prefix___Linear3" x1="0" y1="0" x2="1" y2="0" gradientUnits="userSpaceOnUse" gradientTransform="scale(-82.867) rotate(-45 -.42 .845)"><stop offset="0" stop-color="#007dfe"/><stop offset=".27" stop-color="#007dfe"/><stop offset=".7" stop-color="#d249fc"/><stop offset="1" stop-color="#d249fc"/></linearGradient></defs></svg>