<svg viewBox="0 0 512 512" xmlns="http://www.w3.org/2000/svg" fill-rule="evenodd" clip-rule="evenodd" stroke-linejoin="round" stroke-miterlimit="2"><g transform="translate(6 6) scale(5.85938)"><clipPath id="prefix__a"><path d="M0 0h85.333v85.333H0z"/></clipPath><g clip-path="url(#prefix__a)"><path d="M21.933 8H5.588c-3.017 0-5.5 2.483-5.5 5.5l.001.087.235 14.725a5.505 5.505 0 001.92 4.088l50.879 43.61a5.504 5.504 0 003.578 1.323h15.133c3.018-.001 5.5-2.483 5.5-5.5v-14.67a5.5 5.5 0 00-1.88-4.14L25.555 9.36A5.503 5.503 0 0021.933 8z" fill="#ff8100" fill-rule="nonzero"/><path d="M14.988 6H4.125C1.862 6 0 7.862 0 10.125v12.566c0 .2.014.4.044.598l5.448 37.185A4.139 4.139 0 009.573 64h15.398c2.263 0 4.125-1.862 4.125-4.125v-.002L29.09 41.37c0-.426-.066-.849-.195-1.254l-9.98-31.245A4.136 4.136 0 0014.988 6z" fill="url(#prefix___Linear2)" fill-rule="nonzero" transform="scale(1.33333)"/><path d="M59.876 0H25.748a4.132 4.132 0 00-3.8 2.52L6.151 39.943a4.115 4.115 0 00-.325 1.638l.15 18.329C5.995 62.16 7.851 64 10.101 64h17.666c.806 0 1.593-.236 2.266-.678l32.11-21.109A4.125 4.125 0 0064 38.766V4.125C64 1.862 62.139.001 59.876 0z" fill="url(#prefix___Linear3)" fill-rule="nonzero" transform="scale(1.33333)"/><path fill-rule="nonzero" d="M16 16h53.333v53.333H16z"/><path d="M44 58.667H22.667v4H44v-4zm-21.333-19.49h3.973V26.144h-3.973v-3.488h11.79v3.488h-3.973v13.033h3.973v3.49h-11.79v-3.49zm14.19-.113h2.872c.54.01 1.074-.119 1.55-.372a2.589 2.589 0 001.052-1.05c.248-.454.372-.97.372-1.551V22.656h3.9v13.707c0 1.2-.275 2.278-.828 3.236a5.934 5.934 0 01-2.287 2.25c-.97.544-2.061.815-3.272.815h-3.359v-3.6z" fill="#fff" fill-rule="nonzero"/></g></g><defs><linearGradient id="prefix___Linear2" x1="0" y1="0" x2="1" y2="0" gradientUnits="userSpaceOnUse" gradientTransform="scale(58.92) rotate(65.126 -.105 .06)"><stop offset="0" stop-color="#fc801d"/><stop offset=".1" stop-color="#fc801d"/><stop offset=".59" stop-color="#fe2857"/><stop offset="1" stop-color="#fe2857"/></linearGradient><linearGradient id="prefix___Linear3" x1="0" y1="0" x2="1" y2="0" gradientUnits="userSpaceOnUse" gradientTransform="scale(82.867) rotate(-45 .9 .299)"><stop offset="0" stop-color="#fe2857"/><stop offset=".21" stop-color="#fe2857"/><stop offset=".7" stop-color="#007eff"/><stop offset="1" stop-color="#007eff"/></linearGradient></defs></svg>