<svg viewBox="0 0 512 512" xmlns="http://www.w3.org/2000/svg" fill-rule="evenodd" clip-rule="evenodd" stroke-linejoin="round" stroke-miterlimit="2"><g transform="translate(6 6) scale(5.85938)"><clipPath id="prefix__a"><path d="M0 0h85.333v85.333H0z"/></clipPath><g clip-path="url(#prefix__a)"><path d="M63.4 77.333h16.344c3.017 0 5.5-2.483 5.5-5.5l-.002-.087-.234-14.725a5.505 5.505 0 00-1.92-4.088L32.21 9.324A5.504 5.504 0 0028.63 8H13.5C10.483 8 8 10.483 8 13.5v14.67c0 1.587.685 3.095 1.879 4.14l49.9 43.663a5.498 5.498 0 003.62 1.36z" fill="#007dfe" fill-rule="nonzero"/><path d="M49.013 58h10.862C62.138 58 64 56.138 64 53.875V41.309c0-.2-.014-.4-.044-.598L58.508 3.527A4.139 4.139 0 0054.427 0H39.029c-2.263 0-4.125 1.862-4.125 4.125v.001l.005 18.505c0 .425.066.848.195 1.253l9.979 31.246a4.135 4.135 0 003.93 2.87z" fill="url(#prefix___Linear2)" fill-rule="nonzero" transform="scale(1.33333)"/><path d="M4.125 64h34.127a4.132 4.132 0 003.8-2.52L57.85 24.057c.219-.518.33-1.076.324-1.638l-.15-18.329C58.005 1.841 56.15 0 53.9 0H36.234a4.13 4.13 0 00-2.266.678L1.86 21.787A4.128 4.128 0 000 25.234v34.641C0 62.138 1.862 64 4.125 64z" fill="url(#prefix___Linear3)" fill-rule="nonzero" transform="scale(1.33333)"/><path fill-rule="nonzero" d="M16 16h53.333v53.333H16z"/><path d="M44 58.667H22.667v4H44v-4zM22.656 22.656h8.59c1.4 0 2.634.257 3.7.772 1.067.515 1.89 1.239 2.467 2.173.576.934.864 2.014.864 3.243 0 1.23-.293 2.333-.88 3.28-.585.95-1.42 1.683-2.5 2.201-1.081.52-2.337.779-3.766.779h-4.574v7.56h-3.901V22.656zm10.053 8.84c.492-.244.87-.592 1.138-1.044.266-.453.4-.979.4-1.579s-.134-1.136-.4-1.58a2.686 2.686 0 00-1.136-1.03c-.491-.242-1.066-.363-1.723-.363h-4.43v5.96h4.43c.657 0 1.232-.12 1.723-.364h-.002zm-3.506 2.35h4.258l5.246 8.82h-4.474l-5.03-8.818v-.001zm12.948-11.19h7.617c1.896 0 3.595.428 5.096 1.287a9.178 9.178 0 013.521 3.565c.848 1.52 1.272 3.236 1.272 5.152s-.424 3.633-1.27 5.153a9.19 9.19 0 01-3.523 3.566c-1.5.857-3.2 1.285-5.096 1.285H42.15V22.656zM52.855 38.49c.896-.534 1.586-1.298 2.073-2.294.485-.996.73-2.173.73-3.537 0-1.364-.245-2.543-.73-3.537-.487-.996-1.177-1.76-2.073-2.295-.896-.533-1.94-.8-3.13-.8h-3.673V39.29h3.673c1.19 0 2.234-.267 3.13-.8z" fill="#fff" fill-rule="nonzero"/></g></g><defs><linearGradient id="prefix___Linear2" x1="0" y1="0" x2="1" y2="0" gradientUnits="userSpaceOnUse" gradientTransform="rotate(-114.874 50.182 7.604) scale(58.921)"><stop offset="0" stop-color="#007dfe"/><stop offset=".21" stop-color="#007dfe"/><stop offset=".55" stop-color="#ffb700"/><stop offset="1" stop-color="#ffb700"/></linearGradient><linearGradient id="prefix___Linear3" x1="0" y1="0" x2="1" y2="0" gradientUnits="userSpaceOnUse" gradientTransform="scale(-82.867) rotate(-45 -.42 .845)"><stop offset="0" stop-color="#ffb700"/><stop offset=".23" stop-color="#ffb700"/><stop offset=".73" stop-color="#ff0a67"/><stop offset="1" stop-color="#ff0a67"/></linearGradient></defs></svg>