<svg viewBox="0 0 512 512" xmlns="http://www.w3.org/2000/svg" fill-rule="evenodd" clip-rule="evenodd" stroke-linejoin="round" stroke-miterlimit="2"><g transform="translate(6 6) scale(5.85938)"><clipPath id="prefix__a"><path d="M0 0h85.333v85.333H0z"/></clipPath><g clip-path="url(#prefix__a)"><path d="M8 63.4v16.344c0 3.017 2.483 5.5 5.5 5.5l.087-.002 14.725-.234a5.505 5.505 0 004.088-1.92L76.01 32.21a5.504 5.504 0 001.323-3.58V13.5c0-3.017-2.483-5.5-5.5-5.5h-14.67a5.503 5.503 0 00-4.14 1.879L9.36 59.777A5.503 5.503 0 008 63.4z" fill="#00d886" fill-rule="nonzero"/><path d="M6 49.015v10.862c0 2.263 1.862 4.125 4.125 4.125h12.566c.2 0 .4-.014.598-.044l37.185-5.448A4.139 4.139 0 0064 54.429V39.03c0-2.263-1.862-4.125-4.125-4.125l-18.506.005c-.426 0-.849.066-1.254.195l-31.244 9.98A4.136 4.136 0 006 49.015z" fill="url(#prefix___Linear2)" fill-rule="nonzero" transform="scale(1.33333)"/><path d="M0 4.125v34.127c0 1.659.993 3.155 2.52 3.8L39.943 57.85c.518.219 1.075.33 1.638.324l18.329-.15C62.159 58.005 64 56.149 64 53.9V36.234c0-.806-.236-1.593-.678-2.267L42.213 1.86A4.128 4.128 0 0038.766 0H4.125C1.862 0 0 1.862 0 4.125z" fill="url(#prefix___Linear3)" fill-rule="nonzero" transform="scale(1.33333)"/><path fill-rule="nonzero" d="M16 16h53.333v53.333H16z"/><path d="M44 58.667H22.667v4H44v-4zM22.656 22.656h8.59c1.4 0 2.634.257 3.7.772 1.067.515 1.89 1.239 2.467 2.173.576.934.864 2.014.864 3.243 0 1.23-.293 2.333-.88 3.28-.585.95-1.42 1.683-2.5 2.201-1.081.52-2.337.779-3.766.779h-4.574v7.56h-3.901V22.656zm10.053 8.84c.492-.244.87-.592 1.138-1.044.266-.453.4-.979.4-1.579s-.134-1.136-.4-1.58a2.686 2.686 0 00-1.136-1.03c-.491-.242-1.066-.363-1.723-.363h-4.43v5.96h4.43c.657 0 1.232-.12 1.723-.364h-.002zm-3.506 2.35h4.258l5.246 8.82h-4.474l-5.03-8.818v-.001zm12.948-11.19h8.589c1.4 0 2.635.257 3.701.772 1.067.515 1.89 1.239 2.467 2.173.576.934.864 2.014.864 3.243 0 1.23-.293 2.333-.88 3.28-.585.95-1.419 1.683-2.5 2.201-1.081.52-2.337.779-3.765.779h-4.574v7.56h-3.902V22.656zm10.053 8.84c.492-.244.87-.592 1.137-1.044.267-.453.4-.979.4-1.579s-.133-1.136-.4-1.58a2.686 2.686 0 00-1.136-1.03c-.49-.242-1.065-.363-1.722-.363h-4.431v5.96h4.43c.658 0 1.233-.12 1.723-.364h-.001zm-3.507 2.35h4.259l5.245 8.82h-4.473l-5.03-8.818v-.001z" fill="#fff" fill-rule="nonzero"/></g></g><defs><linearGradient id="prefix___Linear2" x1="0" y1="0" x2="1" y2="0" gradientUnits="userSpaceOnUse" gradientTransform="rotate(-24.875 149.819 14.805) scale(58.92)"><stop offset="0" stop-color="#00d886"/><stop offset=".08" stop-color="#00d886"/><stop offset=".46" stop-color="#ffab00"/><stop offset="1" stop-color="#ffab00"/></linearGradient><linearGradient id="prefix___Linear3" x1="0" y1="0" x2="1" y2="0" gradientUnits="userSpaceOnUse" gradientTransform="scale(-82.867) rotate(45 .508 -1.233)"><stop offset="0" stop-color="#ffab00"/><stop offset=".19" stop-color="#ffab00"/><stop offset=".83" stop-color="#ff004c"/><stop offset="1" stop-color="#ff004c"/></linearGradient></defs></svg>