<svg role="img" viewBox="0 0 24 24" xmlns="http://www.w3.org/2000/svg" id="Vscodium--Streamline-Simple-Icons" height="24" width="24">
  <desc>
    Vscodium Streamline Icon: https://streamlinehq.com
  </desc>
  <title>VSCodium</title>
  <path d="M11.583 0.54a1.467 1.467 0 0 0 -0.441 2.032c2.426 3.758 2.999 6.592 2.75 9.075 -1.004 4.756 -3.187 5.721 -5.094 5.721 -1.863 0 -1.364 -3.065 0.036 -3.962 0.836 -0.522 1.906 -0.861 2.728 -0.861 0.814 0 1.474 -0.658 1.474 -1.47 0 -0.812 -0.66 -1.47 -1.474 -1.47 -0.96 0 -1.901 0.202 -2.78 0.545 0.18 -0.847 0.246 -1.762 0.014 -2.735 -0.352 -1.477 -1.367 -2.889 -3.128 -4.257a1.476 1.476 0 0 0 -2.069 0.256c-0.5 0.64 -0.384 1.564 0.259 2.063 1.435 1.114 1.908 1.939 2.07 2.618 0.162 0.679 0.032 1.407 -0.293 2.408 -0.416 1.349 -0.9 2.553 -1.11 3.708 -0.105 0.568 -0.114 1.187 -0.14 1.68 -1.034 -1.006 -1.438 -2.336 -1.438 -4.279 0 -0.811 -0.66 -1.47 -1.474 -1.47 -0.814 0.001 -1.473 0.659 -1.473 1.47 0 2.654 0.776 5.179 2.855 6.863 1.883 1.793 6.67 1.13 6.67 4.01 0 0.812 1.19 1.208 2.004 1.208 0.834 0 1.885 -0.558 1.885 -1.208 0 -3.267 3.443 -5.253 9.11 -5.244A1.472 1.472 0 0 0 24 15.773a1.472 1.472 0 0 0 -1.47 -1.473c-0.388 0 -0.765 0.013 -1.138 0.035 0.634 -1.49 0.915 -3.13 0.857 -4.903a1.473 1.473 0 0 0 -1.522 -1.42 1.472 1.472 0 0 0 -1.425 1.517c0.076 2.32 -0.01 4.393 -1.74 5.485 -0.49 0.31 -1.062 0.58 -1.604 0.58 0.42 -1.145 0.738 -2.353 0.869 -3.655 0.083 -0.83 0.091 -1.818 -0.003 -2.585 -0.148 -1.188 -0.325 -2.535 0.126 -3.55 0.405 -0.874 1.313 -1.24 2.645 -1.24 0.814 0 1.473 -0.659 1.473 -1.47 0 -0.811 -0.659 -1.47 -1.473 -1.47 -1.98 0 -3.481 1.042 -4.332 2.3 -0.445 -0.95 -0.987 -1.929 -1.642 -2.943a1.474 1.474 0 0 0 -2.037 -0.44z" fill="#4c29fb" stroke-width="1"></path>
</svg>