<svg viewBox="0 0 512 512" xmlns="http://www.w3.org/2000/svg" fill-rule="evenodd" clip-rule="evenodd" stroke-linejoin="round" stroke-miterlimit="2"><g transform="translate(6 6) scale(5.85938)"><clipPath id="prefix__a"><path d="M0 0h85.333v85.333H0z"/></clipPath><g clip-path="url(#prefix__a)"><path d="M8 63.4v16.344c0 3.017 2.483 5.5 5.5 5.5l.087-.002 14.725-.234a5.505 5.505 0 004.088-1.92L76.01 32.21a5.504 5.504 0 001.323-3.58V13.5c0-3.017-2.483-5.5-5.5-5.5h-14.67a5.503 5.503 0 00-4.14 1.879L9.36 59.777A5.503 5.503 0 008 63.4z" fill="#f0eb18" fill-rule="nonzero"/><path d="M6 49.015v10.862c0 2.263 1.862 4.125 4.125 4.125h12.566c.2 0 .4-.014.598-.044l37.185-5.448A4.139 4.139 0 0064 54.429V39.03c0-2.263-1.862-4.125-4.125-4.125l-18.506.005c-.426 0-.849.066-1.254.195l-31.244 9.98A4.136 4.136 0 006 49.015z" fill="url(#prefix___Linear2)" fill-rule="nonzero" transform="scale(1.33333)"/><path d="M0 4.125v34.127c0 1.659.993 3.155 2.52 3.8L39.943 57.85c.518.219 1.075.33 1.638.324l18.329-.15C62.159 58.005 64 56.149 64 53.9V36.234c0-.806-.236-1.593-.678-2.267L42.213 1.86A4.128 4.128 0 0038.766 0H4.125C1.862 0 0 1.862 0 4.125z" fill="url(#prefix___Linear3)" fill-rule="nonzero" transform="scale(1.33333)"/><path fill-rule="nonzero" d="M16 16h53.333v53.333H16z"/><path d="M44 58.667H22.667v4H44v-4zM25.4 22.656l3.23 14.607 3.445-14.607h3.944l3.601 14.607 3.13-14.607h3.96l-4.86 20.008h-4.444L34.033 28.13 30.62 42.664h-4.432l-4.831-20.008H25.4zM51.55 42.219c-1.12-.524-1.996-1.258-2.63-2.2-.632-.944-.96-2.03-.98-3.26h3.917c0 .582.152 1.092.457 1.53.306.439.73.782 1.272 1.03.543.246 1.167.37 1.872.37.707 0 1.27-.11 1.78-.334.51-.224.904-.536 1.186-.936.28-.4.42-.858.42-1.372 0-.64-.192-1.167-.578-1.587-.386-.419-.917-.71-1.593-.872l-3.53-.787a6.58 6.58 0 01-2.487-1.078 5.35 5.35 0 01-1.643-1.894c-.39-.752-.587-1.6-.587-2.544 0-1.142.296-2.17.887-3.08.59-.91 1.415-1.62 2.472-2.13 1.057-.508 2.259-.763 3.601-.763 1.344 0 2.579.248 3.646.744 1.066.496 1.897 1.184 2.493 2.065.596.88.897 1.894.907 3.036h-3.9a2.3 2.3 0 00-.387-1.306 2.543 2.543 0 00-1.093-.902 3.902 3.902 0 00-1.623-.32c-.61 0-1.145.102-1.607.307a2.53 2.53 0 00-1.08.857c-.26.376-.394.824-.385 1.28 0 .552.179 1.01.536 1.37.357.364.845.62 1.465.773l3.4.743c.983.2 1.856.58 2.624 1.136a5.935 5.935 0 011.794 2.058c.43.823.65 1.738.642 2.666 0 1.18-.312 2.24-.936 3.18-.624.937-1.497 1.673-2.621 2.208-1.125.533-2.412.8-3.859.8-1.448 0-2.733-.263-3.852-.787v-.001z" fill="#fff" fill-rule="nonzero"/></g></g><defs><linearGradient id="prefix___Linear2" x1="0" y1="0" x2="1" y2="0" gradientUnits="userSpaceOnUse" gradientTransform="scale(58.92) rotate(-24.874 2.543 .251)"><stop offset="0" stop-color="#f0eb18"/><stop offset=".22" stop-color="#f0eb18"/><stop offset=".59" stop-color="#00c4f4"/><stop offset="1" stop-color="#00c4f4"/></linearGradient><linearGradient id="prefix___Linear3" x1="0" y1="0" x2="1" y2="0" gradientUnits="userSpaceOnUse" gradientTransform="scale(-82.867) rotate(45.001 .508 -1.233)"><stop offset="0" stop-color="#00c4f4"/><stop offset=".19" stop-color="#00c4f4"/><stop offset=".83" stop-color="#007dfe"/><stop offset="1" stop-color="#007dfe"/></linearGradient></defs></svg>