<?xml version="1.0" encoding="utf-8"?>
<!-- Uploaded to: SVG Repo, www.svgrepo.com, Generator: SVG Repo Mixer Tools -->
<svg width="800px" height="800px" viewBox="0 0 1024 1024" class="icon"  version="1.1" xmlns="http://www.w3.org/2000/svg"><path d="M932.113067 724.309333H87.335822v38.889245a58.094933 58.094933 0 0 0 58.083556 58.083555H874.040889a58.083556 58.083556 0 0 0 58.072178-58.083555V724.309333zM847.132444 218.646756h-674.816a48.64 48.64 0 0 0-48.64 48.64V724.309333h772.096V267.298133a48.64 48.64 0 0 0-48.64-48.651377z" fill="#247396" /><path d="M835.219911 281.508978v382.236444H184.228978V281.508978c0-1.274311 1.024-2.309689 2.298311-2.309689h646.405689c1.251556 0.011378 2.286933 1.035378 2.286933 2.309689z" fill="#E6E6E6" /><path d="M639.7952 279.210667L303.775289 663.745422H184.228978v-4.380444L516.425956 279.210667zM835.219911 281.508978v65.069511L558.068622 663.745422H370.528711L706.571378 279.210667h126.3616c1.251556 0 2.286933 1.024 2.286933 2.298311z" fill="#FFFFFF" /><path d="M565.998933 778.808889h-112.560355a43.645156 43.645156 0 0 1-43.633778-43.645156v-10.8544h199.839289v10.8544a43.645156 43.645156 0 0 1-43.645156 43.645156z" fill="#4799B5" /><path d="M932.113067 709.791289h-21.822578V267.298133a63.226311 63.226311 0 0 0-63.158045-63.158044H278.9376a14.518044 14.518044 0 1 0 0 29.024711h568.194844c18.818844 0 34.133333 15.314489 34.133334 34.133333v442.493156h-743.082667V267.298133c0-18.818844 15.314489-34.133333 34.133333-34.133333h58.242845a14.506667 14.506667 0 1 0 0-29.036089h-58.242845a63.237689 63.237689 0 0 0-63.158044 63.158045v442.504533H87.335822A14.518044 14.518044 0 0 0 72.817778 724.309333v38.889245a72.681244 72.681244 0 0 0 72.6016 72.6016h487.697066a14.518044 14.518044 0 0 0 0-29.024711H145.419378a43.6224 43.6224 0 0 1-43.565511-43.565511v-24.382578H395.411911a58.231467 58.231467 0 0 0 58.038045 54.510933h112.560355a58.231467 58.231467 0 0 0 58.038045-54.510933h293.546666v24.382578a43.6224 43.6224 0 0 1-43.576889 43.565511H681.483378a14.506667 14.506667 0 1 0 0 29.024711h192.546133a72.681244 72.681244 0 0 0 72.6016-72.6016V724.309333c0-8.021333-6.496711-14.518044-14.518044-14.518044z m-366.114134 54.499555h-112.560355a29.172622 29.172622 0 0 1-28.899556-25.463466h170.359467a29.172622 29.172622 0 0 1-28.899556 25.463466z" fill="" /><path d="M835.219911 426.3936c8.021333 0 14.506667-6.496711 14.506667-14.506667V281.508978c0-9.272889-7.532089-16.816356-16.804978-16.816356H186.527289a16.839111 16.839111 0 0 0-16.804978 16.816356v382.247822c0 8.009956 6.496711 14.506667 14.506667 14.506667h650.990933c8.021333 0 14.506667-6.496711 14.506667-14.506667V460.265244a14.506667 14.506667 0 1 0-29.013334 0V649.216H198.747022V293.717333h621.966222V411.875556c0 8.009956 6.485333 14.518044 14.506667 14.518044z" fill="" /><path d="M443.4944 545.507556a14.518044 14.518044 0 0 0 20.525511 20.525511 64.7168 64.7168 0 0 1 91.397689 0 14.449778 14.449778 0 0 0 20.514133 0 14.495289 14.495289 0 0 0 0-20.525511c-36.499911-36.511289-95.914667-36.511289-132.437333 0z" fill="" /><path d="M614.980267 520.988444a14.518044 14.518044 0 0 0 10.262755-24.7808c-30.856533-30.856533-71.8848-47.854933-115.518578-47.854933s-84.662044 16.9984-115.518577 47.854933a14.518044 14.518044 0 0 0 20.525511 20.525512 133.461333 133.461333 0 0 1 94.993066-39.344356c35.874133 0 69.609244 13.983289 94.993067 39.344356 2.833067 2.844444 6.5536 4.255289 10.262756 4.255288z" fill="" /><path d="M664.632889 471.335822a14.495289 14.495289 0 0 0 10.251378-24.7808c-91.067733-91.067733-239.263289-91.067733-330.331023 0a14.495289 14.495289 0 0 0 0 20.525511 14.495289 14.495289 0 0 0 20.525512 0c79.758222-79.758222 209.533156-79.746844 289.28 0 2.844444 2.844444 6.5536 4.255289 10.274133 4.255289z" fill="" /></svg>